External Loads File
version=1
nRows=31
nColumns=13
Range=5.000000e-03-10 seconds
endheader
time 	forceRightX 	forceRightY 	forceRightZ 	pointRightX 	pointRightY 	pointRightZ 	forceLeftX 	forceLeftY 	forceLeftZ 	pointLeftX 	pointLeftY 	pointLeftZ 		
2.505000 83.269231 955.555075 -0.000000 0.334689 0.242478 -0.121767 43.755061 -48.143308 -0.000000 0.065782 0.375843 -0.362846
2.510000 94.925232 984.901074 -0.000000 0.330981 0.234622 -0.121403 42.045918 -46.555471 -0.000000 0.070322 0.382868 -0.363335
2.515000 107.324118 1012.671501 -0.000000 0.327072 0.226890 -0.121343 39.272537 -45.229567 -0.000000 0.074920 0.389837 -0.363644
2.520000 120.607579 1038.402081 -0.000000 0.323089 0.219450 -0.121041 35.385679 -44.208128 -0.000000 0.079841 0.396955 -0.363960
2.525000 134.783379 1061.643387 -0.000000 0.318267 0.212248 -0.121437 30.364276 -43.473937 -0.000000 0.085184 0.403491 -0.364247
2.530000 148.976842 1082.081261 -0.000000 0.313358 0.205300 -0.121429 24.248617 -42.936426 -0.000000 0.090982 0.409612 -0.364265
2.535000 163.912288 1099.187065 -0.000000 0.308181 0.198501 -0.121320 17.064027 -42.531239 -0.000000 0.096663 0.415883 -0.364420
2.540000 180.062774 1112.392647 -0.000000 0.302592 0.192033 -0.121734 8.915924 -42.192556 -0.000000 0.102878 0.421917 -0.364280
2.545000 200.943161 1120.518045 -0.000000 0.296892 0.185861 -0.121370 -0.150614 -41.859301 -0.000000 0.109505 0.429739 -0.364110
2.550000 217.557454 1124.551208 -0.000000 0.290787 0.179985 -0.121375 -9.606451 -41.443697 -0.000000 0.116347 0.435340 -0.363900
2.555000 233.792280 1123.309988 -0.000000 0.284512 0.174400 -0.121354 -19.421162 -40.904409 -0.000000 0.123371 0.440781 -0.363761
2.560000 246.728511 1116.872362 -0.000000 0.277769 0.169032 -0.121739 -29.321020 -40.200628 -0.000000 0.130374 0.444233 -0.363684
2.565000 261.081901 1103.696303 -0.000000 0.271106 0.164180 -0.121839 -39.276951 -39.085861 -0.000000 0.137501 0.449673 -0.363178
2.570000 273.550078 1084.058969 -0.000000 0.264302 0.159615 -0.121797 -48.894904 -37.466852 -0.000000 0.145065 0.454134 -0.362993
2.575000 283.720135 1057.828909 -0.000000 0.257381 0.155468 -0.121646 -57.820707 -35.189018 -0.000000 0.152627 0.458657 -0.363030
2.580000 290.252821 1025.391918 -0.000000 0.250511 0.151632 -0.121569 -65.680159 -32.166679 -0.000000 0.160209 0.462649 -0.362920
2.585000 293.590781 986.926510 -0.000000 0.243594 0.148088 -0.121469 -72.255231 -28.282291 -0.000000 0.167804 0.466343 -0.363058
2.590000 294.024290 942.839324 -0.000000 0.236606 0.144966 -0.121428 -77.445015 -23.508824 -0.000000 0.175538 0.469757 -0.363066
2.595000 290.928458 893.978517 -0.000000 0.229602 0.142268 -0.121353 -81.231400 -17.994133 -0.000000 0.183241 0.472425 -0.363385
2.600000 284.043422 841.223517 -0.000000 0.222986 0.140001 -0.121007 -83.694427 -11.957602 -0.000000 0.190957 0.475086 -0.363522
2.605000 276.577447 784.320506 -0.000000 0.215533 0.137012 -0.120900 -85.004915 -5.304208 -0.000000 0.198659 0.477481 -0.363754
2.610000 265.027561 725.311824 -0.000000 0.208641 0.135599 -0.120940 -85.273147 1.377757 -0.000000 0.206271 0.479418 -0.363951
2.615000 252.122186 664.053871 -0.000000 0.201539 0.134901 -0.120734 -84.669027 8.164057 -0.000000 0.213917 0.480948 -0.364056
2.620000 236.351975 601.896047 -0.000000 0.194866 0.134028 -0.120676 -83.353809 14.648421 -0.000000 0.221254 0.482127 -0.364379
2.625000 220.054576 538.670405 -0.000000 0.188004 0.133542 -0.120628 -81.419003 20.953147 -0.000000 0.228686 0.482850 -0.364614
2.630000 202.685194 475.244727 -0.000000 0.181302 0.133523 -0.120553 -78.966440 26.897366 -0.000000 0.236037 0.483209 -0.364775
2.635000 184.466696 412.145607 -0.000000 0.174623 0.133883 -0.120847 -76.052839 32.469973 -0.000000 0.243046 0.483166 -0.365307
2.640000 166.401295 349.522209 -0.000000 0.167868 0.134805 -0.120913 -72.627101 37.884617 -0.000000 0.250212 0.482681 -0.365164
2.645000 147.878358 288.289343 -0.000000 0.161373 0.135970 -0.120905 -68.764293 43.113838 -0.000000 0.257112 0.481838 -0.365180
2.650000 129.581374 228.839510 -0.000000 0.155009 0.137714 -0.120967 -64.447068 48.421906 -0.000000 0.263857 0.480511 -0.365179
2.655000 111.644880 171.898605 -0.000000 0.148954 0.139892 -0.120681 -59.751782 53.979338 -0.000000 0.270385 0.478813 -0.365275
